{
    "asset" : {
        "generator" : "Khronos glTF Blender I/O v1.6.16",
        "version" : "2.0"
    },
    "scene" : 0,
    "scenes" : [
        {
            "name" : "Scene",
            "nodes" : [
                0
            ]
        }
    ],
    "nodes" : [
        {
            "mesh" : 0,
            "name" : "Cubo Rubik"
        }
    ],
    "materials" : [
        {
            "doubleSided" : true,
            "name" : "Rojo",
            "pbrMetallicRoughness" : {
                "baseColorFactor" : [
                    0.8000000715255737,
                    0,
                    0.0035780880134552717,
                    1
                ],
                "metallicFactor" : 0,
                "roughnessFactor" : 0.5
            }
        },
        {
            "doubleSided" : true,
            "name" : "Blanco",
            "pbrMetallicRoughness" : {
                "baseColorFactor" : [
                    0.800000011920929,
                    0.800000011920929,
                    0.800000011920929,
                    1
                ],
                "metallicFactor" : 0,
                "roughnessFactor" : 0.5
            }
        },
        {
            "doubleSided" : true,
            "name" : "Azul",
            "pbrMetallicRoughness" : {
                "baseColorFactor" : [
                    0,
                    0.008862813003361225,
                    0.8000000715255737,
                    1
                ],
                "metallicFactor" : 0,
                "roughnessFactor" : 0.5
            }
        },
        {
            "doubleSided" : true,
            "name" : "Amarillo",
            "pbrMetallicRoughness" : {
                "baseColorFactor" : [
                    0.8000000715255737,
                    0.6879388689994812,
                    0,
                    1
                ],
                "metallicFactor" : 0,
                "roughnessFactor" : 0.5
            }
        },
        {
            "doubleSided" : true,
            "name" : "Verde",
            "pbrMetallicRoughness" : {
                "baseColorFactor" : [
                    0,
                    0.8000000715255737,
                    0.00041227065958082676,
                    1
                ],
                "metallicFactor" : 0,
                "roughnessFactor" : 0.5
            }
        },
        {
            "doubleSided" : true,
            "name" : "Naranja",
            "pbrMetallicRoughness" : {
                "baseColorFactor" : [
                    0.8000000715255737,
                    0.19499947130680084,
                    0,
                    1
                ],
                "metallicFactor" : 0,
                "roughnessFactor" : 0.5
            }
        },
        {
            "doubleSided" : true,
            "name" : "Cuerpo",
            "pbrMetallicRoughness" : {
                "baseColorFactor" : [
                    0,
                    0,
                    0,
                    1
                ],
                "metallicFactor" : 0,
                "roughnessFactor" : 0.5
            }
        }
    ],
    "meshes" : [
        {
            "name" : "Cube.002",
            "primitives" : [
                {
                    "attributes" : {
                        "POSITION" : 0,
                        "NORMAL" : 1,
                        "TEXCOORD_0" : 2
                    },
                    "indices" : 3,
                    "material" : 0
                },
                {
                    "attributes" : {
                        "POSITION" : 4,
                        "NORMAL" : 5,
                        "TEXCOORD_0" : 6
                    },
                    "indices" : 7,
                    "material" : 1
                },
                {
                    "attributes" : {
                        "POSITION" : 8,
                        "NORMAL" : 9,
                        "TEXCOORD_0" : 10
                    },
                    "indices" : 11,
                    "material" : 2
                },
                {
                    "attributes" : {
                        "POSITION" : 12,
                        "NORMAL" : 13,
                        "TEXCOORD_0" : 14
                    },
                    "indices" : 15,
                    "material" : 3
                },
                {
                    "attributes" : {
                        "POSITION" : 16,
                        "NORMAL" : 17,
                        "TEXCOORD_0" : 18
                    },
                    "indices" : 19,
                    "material" : 4
                },
                {
                    "attributes" : {
                        "POSITION" : 20,
                        "NORMAL" : 21,
                        "TEXCOORD_0" : 22
                    },
                    "indices" : 23,
                    "material" : 5
                },
                {
                    "attributes" : {
                        "POSITION" : 24,
                        "NORMAL" : 25,
                        "TEXCOORD_0" : 26
                    },
                    "indices" : 27,
                    "material" : 6
                }
            ]
        }
    ],
    "accessors" : [
        {
            "bufferView" : 0,
            "componentType" : 5126,
            "count" : 216,
            "max" : [
                0.9641578197479248,
                1.0166072845458984,
                0.9641578197479248
            ],
            "min" : [
                -0.9641578197479248,
                1,
                -0.9641578197479248
            ],
            "type" : "VEC3"
        },
        {
            "bufferView" : 1,
            "componentType" : 5126,
            "count" : 216,
            "type" : "VEC3"
        },
        {
            "bufferView" : 2,
            "componentType" : 5126,
            "count" : 216,
            "type" : "VEC2"
        },
        {
            "bufferView" : 3,
            "componentType" : 5123,
            "count" : 324,
            "type" : "SCALAR"
        },
        {
            "bufferView" : 4,
            "componentType" : 5126,
            "count" : 216,
            "max" : [
                1.0166072845458984,
                0.9641578197479248,
                0.9641578197479248
            ],
            "min" : [
                1,
                -0.9641578197479248,
                -0.9641578197479248
            ],
            "type" : "VEC3"
        },
        {
            "bufferView" : 5,
            "componentType" : 5126,
            "count" : 216,
            "type" : "VEC3"
        },
        {
            "bufferView" : 6,
            "componentType" : 5126,
            "count" : 216,
            "type" : "VEC2"
        },
        {
            "bufferView" : 7,
            "componentType" : 5123,
            "count" : 324,
            "type" : "SCALAR"
        },
        {
            "bufferView" : 8,
            "componentType" : 5126,
            "count" : 216,
            "max" : [
                0.9641578197479248,
                0.9641578197479248,
                1.0166072845458984
            ],
            "min" : [
                -0.9641578197479248,
                -0.9641578197479248,
                1
            ],
            "type" : "VEC3"
        },
        {
            "bufferView" : 9,
            "componentType" : 5126,
            "count" : 216,
            "type" : "VEC3"
        },
        {
            "bufferView" : 10,
            "componentType" : 5126,
            "count" : 216,
            "type" : "VEC2"
        },
        {
            "bufferView" : 11,
            "componentType" : 5123,
            "count" : 324,
            "type" : "SCALAR"
        },
        {
            "bufferView" : 12,
            "componentType" : 5126,
            "count" : 216,
            "max" : [
                -1,
                0.9641578197479248,
                0.9641578197479248
            ],
            "min" : [
                -1.0166072845458984,
                -0.9641578197479248,
                -0.9641578197479248
            ],
            "type" : "VEC3"
        },
        {
            "bufferView" : 13,
            "componentType" : 5126,
            "count" : 216,
            "type" : "VEC3"
        },
        {
            "bufferView" : 14,
            "componentType" : 5126,
            "count" : 216,
            "type" : "VEC2"
        },
        {
            "bufferView" : 15,
            "componentType" : 5123,
            "count" : 324,
            "type" : "SCALAR"
        },
        {
            "bufferView" : 16,
            "componentType" : 5126,
            "count" : 216,
            "max" : [
                0.9641578197479248,
                0.9641578197479248,
                -1
            ],
            "min" : [
                -0.9641578197479248,
                -0.9641578197479248,
                -1.0166072845458984
            ],
            "type" : "VEC3"
        },
        {
            "bufferView" : 17,
            "componentType" : 5126,
            "count" : 216,
            "type" : "VEC3"
        },
        {
            "bufferView" : 18,
            "componentType" : 5126,
            "count" : 216,
            "type" : "VEC2"
        },
        {
            "bufferView" : 19,
            "componentType" : 5123,
            "count" : 324,
            "type" : "SCALAR"
        },
        {
            "bufferView" : 20,
            "componentType" : 5126,
            "count" : 216,
            "max" : [
                0.9641578197479248,
                -1,
                0.9641578197479248
            ],
            "min" : [
                -0.9641578197479248,
                -1.0166072845458984,
                -0.9641578197479248
            ],
            "type" : "VEC3"
        },
        {
            "bufferView" : 21,
            "componentType" : 5126,
            "count" : 216,
            "type" : "VEC3"
        },
        {
            "bufferView" : 22,
            "componentType" : 5126,
            "count" : 216,
            "type" : "VEC2"
        },
        {
            "bufferView" : 23,
            "componentType" : 5123,
            "count" : 324,
            "type" : "SCALAR"
        },
        {
            "bufferView" : 24,
            "componentType" : 5126,
            "count" : 312,
            "max" : [
                1,
                1,
                1
            ],
            "min" : [
                -1,
                -1,
                -1
            ],
            "type" : "VEC3"
        },
        {
            "bufferView" : 25,
            "componentType" : 5126,
            "count" : 312,
            "type" : "VEC3"
        },
        {
            "bufferView" : 26,
            "componentType" : 5126,
            "count" : 312,
            "type" : "VEC2"
        },
        {
            "bufferView" : 27,
            "componentType" : 5123,
            "count" : 1620,
            "type" : "SCALAR"
        }
    ],
    "bufferViews" : [
        {
            "buffer" : 0,
            "byteLength" : 2592,
            "byteOffset" : 0
        },
        {
            "buffer" : 0,
            "byteLength" : 2592,
            "byteOffset" : 2592
        },
        {
            "buffer" : 0,
            "byteLength" : 1728,
            "byteOffset" : 5184
        },
        {
            "buffer" : 0,
            "byteLength" : 648,
            "byteOffset" : 6912
        },
        {
            "buffer" : 0,
            "byteLength" : 2592,
            "byteOffset" : 7560
        },
        {
            "buffer" : 0,
            "byteLength" : 2592,
            "byteOffset" : 10152
        },
        {
            "buffer" : 0,
            "byteLength" : 1728,
            "byteOffset" : 12744
        },
        {
            "buffer" : 0,
            "byteLength" : 648,
            "byteOffset" : 14472
        },
        {
            "buffer" : 0,
            "byteLength" : 2592,
            "byteOffset" : 15120
        },
        {
            "buffer" : 0,
            "byteLength" : 2592,
            "byteOffset" : 17712
        },
        {
            "buffer" : 0,
            "byteLength" : 1728,
            "byteOffset" : 20304
        },
        {
            "buffer" : 0,
            "byteLength" : 648,
            "byteOffset" : 22032
        },
        {
            "buffer" : 0,
            "byteLength" : 2592,
            "byteOffset" : 22680
        },
        {
            "buffer" : 0,
            "byteLength" : 2592,
            "byteOffset" : 25272
        },
        {
            "buffer" : 0,
            "byteLength" : 1728,
            "byteOffset" : 27864
        },
        {
            "buffer" : 0,
            "byteLength" : 648,
            "byteOffset" : 29592
        },
        {
            "buffer" : 0,
            "byteLength" : 2592,
            "byteOffset" : 30240
        },
        {
            "buffer" : 0,
            "byteLength" : 2592,
            "byteOffset" : 32832
        },
        {
            "buffer" : 0,
            "byteLength" : 1728,
            "byteOffset" : 35424
        },
        {
            "buffer" : 0,
            "byteLength" : 648,
            "byteOffset" : 37152
        },
        {
            "buffer" : 0,
            "byteLength" : 2592,
            "byteOffset" : 37800
        },
        {
            "buffer" : 0,
            "byteLength" : 2592,
            "byteOffset" : 40392
        },
        {
            "buffer" : 0,
            "byteLength" : 1728,
            "byteOffset" : 42984
        },
        {
            "buffer" : 0,
            "byteLength" : 648,
            "byteOffset" : 44712
        },
        {
            "buffer" : 0,
            "byteLength" : 3744,
            "byteOffset" : 45360
        },
        {
            "buffer" : 0,
            "byteLength" : 3744,
            "byteOffset" : 49104
        },
        {
            "buffer" : 0,
            "byteLength" : 2496,
            "byteOffset" : 52848
        },
        {
            "buffer" : 0,
            "byteLength" : 3240,
            "byteOffset" : 55344
        }
    ],
    "buffers" : [
        {
            "byteLength" : 58584,
            "uri" : "data:application/octet-stream;base64,"
        }
    ]
}
